<svg xmlns="http://www.w3.org/2000/svg" width="16" height="16"><path d="M16 8a8 8 0 0 1-7.856 7.999 8 8 0 0 1-8.139-7.71A8 8 0 0 1 7.568.011a8 8 0 0 1 8.411 7.412" style="fill:#000;stroke-width:4;paint-order:stroke fill markers;fill-opacity:1"/><path d="M8 2C4.7 2 2 4.7 2 8s2.7 6 6 6 6-2.7 6-6-2.7-6-6-6Zm0 10.65c-2.55 0-4.65-2.1-4.65-4.65 0-2.55 2.1-4.65 4.65-4.65 2.55 0 4.65 2.1 4.65 4.65 0 2.55-2.1 4.65-4.65 4.65z" opacity=".2" style="fill:#f2f2f2;stroke-width:1;opacity:1"/><path d="M10.325 3.95 11 2.825A5.807 5.807 0 0 0 8 2v1.35c.825 0 1.65.225 2.325.6z" style="fill:#000;stroke-width:2;stroke-dasharray:none;stroke:#000;stroke-opacity:1"><animateTransform fill="remove" accumulate="none" additive="replace" attributeName="transform" attributeType="xml" calcMode="linear" dur="1s" from="0 8 8" repeatCount="indefinite" restart="always" to="360 8 8" type="rotate"/></path></svg>