<svg width="64" height="64" viewBox="0 0 64 64" xmlns="http://www.w3.org/2000/svg" class="folder-icon" {% if s_not_link %}aria-hidden="true"{% else %}role="img" aria-label="{{ aria_label }}"{% endif %}>
	<path class="folder-main-fill folder-main-stroke" d="M16 7h28a8 8 0 0 1 8 8v33a8 8 0 0 1-8 8H16a8 8 0 0 1-8-8V15a8 8 0 0 1 8-8z" stroke-width="2"/>

	<g class="folder-neutral-fill" transform="scale(1.8), translate(9, 10)">
		<path d="M14.9 1.1c-1.4-1.4-3.7-1.4-5.1 0l-4.4 4.3c-1.4 1.5-1.4 3.7 0 5.2 0.1 0.1 0.3 0.2 0.4 0.3l1.5-1.5c-0.1-0.1-0.3-0.2-0.4-0.3-0.6-0.6-0.6-1.6 0-2.2l4.4-4.4c0.6-0.6 1.6-0.6 2.2 0s0.6 1.6 0 2.2l-1.3 1.3c0.4 0.8 0.5 1.7 0.4 2.5l2.3-2.3c1.5-1.4 1.5-3.7 0-5.1z"></path>
		<path d="M10.2 5.1l-1.5 1.5c0 0 0.3 0.2 0.4 0.3 0.6 0.6 0.6 1.6 0 2.2l-4.4 4.4c-0.6 0.6-1.6 0.6-2.2 0s-0.6-1.6 0-2.2l1.3-1.3c-0.4-0.8-0.1-1.3-0.4-2.5l-2.3 2.3c-1.4 1.4-1.4 3.7 0 5.1s3.7 1.4 5.1 0l4.4-4.4c1.4-1.4 1.4-3.7 0-5.1-0.2-0.1-0.4-0.3-0.4-0.3z"></path>
	</g>
</svg>
