<svg width="64" height="64" viewBox="0 0 64 64" xmlns="http://www.w3.org/2000/svg" class="folder-icon" {% if s_not_link %}aria-hidden="true"{% else %}role="img" aria-label="{{ aria_label }}"{% endif %}>
	<path class="folder-main-fill folder-main-stroke" d="M16 7h28a8 8 0 0 1 8 8v33a8 8 0 0 1-8 8H16a8 8 0 0 1-8-8V15a8 8 0 0 1 8-8z" stroke-width="2"/>

	<g class="folder-main-stroke" stroke-width="2">
		<line x1="18" y1="18" x2="32" y2="18"/>
		<line x1="18" y1="24" x2="32" y2="24"/>
		<line x1="18" y1="30" x2="36" y2="30"/>
		<line x1="18" y1="36" x2="40" y2="36"/>
		<line x1="18" y1="42" x2="40" y2="42"/>
		<line x1="18" y1="48" x2="40" y2="48"/>
	</g>

	<g class="folder-neutral-stroke">
		<line x1="57" y1="7" x2="43" y2="23" stroke-width="3" transform="rotate(-1 40)"/>
		<circle class="folder-state-fill" cx="57" cy="7" r="6.2"/>
	</g>

	<circle class="folder-mine-fill folder-main-stroke" cx="52" cy="55" r="6.2" stroke-width="2"/>
</svg>


