<svg width="64" height="64" viewBox="0 0 64 64" xmlns="http://www.w3.org/2000/svg" class="folder-icon" {% if s_not_link %}aria-hidden="true"{% else %}role="img" aria-label="{{ aria_label }}"{% endif %}>
	<path class="folder-main-fill folder-main-stroke" d="M16 7h28a8 8 0 0 1 8 8v33a8 8 0 0 1-8 8H16a8 8 0 0 1-8-8V15a8 8 0 0 1 8-8z" stroke-width="2"/>

	<g class="folder-main-stroke" stroke-width="2">
		<line x1="18" y1="18" x2="32" y2="18"/>
		<line x1="18" y1="24" x2="32" y2="24"/>
		<line x1="18" y1="30" x2="36" y2="30"/>
		<line x1="18" y1="36" x2="40" y2="36"/>
		<line x1="18" y1="42" x2="40" y2="42"/>
		<line x1="18" y1="48" x2="40" y2="48"/>
	</g>

	<g>
		<line x1="10" y1="42" x2="36" y2="42" stroke="var(--primary-color)" stroke-width="8"/>
		<polygon points="1,42 17,30 17,54" fill="var(--primary-color)"/>
	</g>
</svg>
