<svg xmlns="http://www.w3.org/2000/svg" width="80" height="80" viewBox="0 0 80 80" class="no-avatar-svg">
	<defs>
	<linearGradient id="overlayGradient" x1="0" y1="0" x2="0" y2="1">
		<stop offset="0%" stop-color="hsla(0, 0%, 100%, 0.1)"/>
		<stop offset="4%" stop-color="hsla(0, 0%, 100%, 0.18)"/>
		<stop offset="79%" stop-color="hsla(0, 0%, 100%, 0.02)"/>
		<stop offset="89%" stop-color="hsla(0, 0%, 100%, 0.01)"/>
		<stop offset="93%" stop-color="hsla(0, 0%, 0%, 0.01)"/>
		<stop offset="100%" stop-color="hsla(0, 0%, 0%, 0)"/>
	</linearGradient>
	</defs>

	<rect class="no-avatar-fill" width="80" height="80" rx="7" ry="7" fill="var(--primary-color, hsl(209, 68%, 44%))"/>

	<rect width="80" height="80" rx="7" ry="7" fill="url(#overlayGradient)"/>

	<path d="M80 160c0-35.3 28.7-64 64-64l32 0c35.3 0 64 28.7 64 64l0 3.6c0 21.8-11.1 42.1-29.4 53.8l-42.2 27.1c-25.2 16.2-40.4 44.1-40.4 74l0 1.4c0 17.7 14.3 32 32 32s32-14.3 32-32l0-1.4c0-8.2 4.2-15.8 11-20.2l42.2-27.1c36.6-23.6 58.8-64.1 58.8-107.7l0-3.6c0-70.7-57.3-128-128-128l-32 0C73.3 32 16 89.3 16 160c0 17.7 14.3 32 32 32s32-14.3 32-32zm80 320a40 40 0 1 0 0-80 40 40 0 1 0 0 80z" fill="var(--contrast-color)" transform="scale(0.12) translate(170, 80)"/>
</svg>
