<svg width="64" height="64" viewBox="0 0 64 64" xmlns="http://www.w3.org/2000/svg" class="folder-icon" {% if s_not_link %}aria-hidden="true"{% else %}role="img" aria-label="{{ aria_label }}"{% endif %}>
	<path class="folder-main-fill folder-main-stroke" d="M16 7h28a8 8 0 0 1 8 8v33a8 8 0 0 1-8 8H16a8 8 0 0 1-8-8V15a8 8 0 0 1 8-8z" stroke-width="2"/>

	<g class="folder-main-stroke" stroke-width="2">
		<line x1="18" y1="18" x2="32" y2="18"/>
		<line x1="18" y1="24" x2="32" y2="24"/>
		<line x1="18" y1="30" x2="36" y2="30"/>
		<line x1="18" y1="36" x2="40" y2="36"/>
		<line x1="18" y1="42" x2="40" y2="42"/>
		<line x1="18" y1="48" x2="40" y2="48"/>
	</g>

	<g transform="translate(12.25, -11.5) rotate(-2) scale(0.6)">
		<path class="folder-state-fill" d="M42,91.9c-4,5.4-10.6,6.7-15.4,6.8c-5.7,0.2-10.6-1.2-13-2.2c6.2-2.6,8.5-6.4,10.9-10.4c1.3-2.2,2.6-4.4,4.7-6.6 c1.6-1.7,3.8-2.7,6.2-2.7c2.4-0.1,4.6,0.8,6.3,2.4C45.7,82.9,44.6,88.4,42,91.9z"/>
		<path class="folder-neutral-fill" d="M84.4,7.4L45.8,78.9c-0.5-0.7-1-1.4-1.7-2c-2.3-2.2-5.3-3.4-8.5-3.3L79,4.3c0.8-1.4,2.6-1.9,4.1-1.1l0.3,0.2 C84.7,4.2,85.2,6,84.4,7.4z"/>
	</g>
</svg>
