<svg xmlns="http://www.w3.org/2000/svg" viewBox="0 0 73 24">
  <path fill="#FFF" fill-rule="evenodd" d="M13.888 11.703c0 1.169-.144 2.243-.432 3.223-.287.98-.705 1.83-1.254 2.548a5.615 5.615 0 0 1-2.05 1.672c-.817.396-1.756.593-2.817.593-.81 0-1.533-.202-2.171-.606a4.408 4.408 0 0 1-1.497-1.551V24H2.535a2.621 2.621 0 0 1-1.753-.674 2.499 2.499 0 0 1-.566-.782A2.443 2.443 0 0 1 0 21.492v-8.79c0-1.205.14-2.311.418-3.318.279-1.006.715-1.87 1.308-2.588.593-.72 1.348-1.277 2.265-1.672.917-.396 2.013-.594 3.29-.594.97 0 1.86.203 2.67.607.809.405 1.505.94 2.09 1.605a7.348 7.348 0 0 1 1.361 2.292c.324.863.486 1.753.486 2.67zm-3.722.944c0-1.726-.283-2.975-.85-3.748-.565-.773-1.433-1.16-2.601-1.16-1.007 0-1.776.391-2.306 1.173s-.796 1.803-.796 3.061c0 1.456.329 2.58.985 3.37.656.792 1.523 1.187 2.602 1.187.88 0 1.596-.355 2.144-1.065s.822-1.65.822-2.818zm16.579 6.769c-.755 0-1.353-.207-1.793-.62-.44-.414-.661-1.016-.661-1.807v-5.933c0-.593-.077-1.1-.23-1.523-.152-.423-.359-.764-.62-1.025a2.452 2.452 0 0 0-.916-.58 3.287 3.287 0 0 0-1.12-.189c-.287 0-.584.059-.89.176-.305.116-.588.31-.849.58-.26.269-.472.62-.634 1.051-.161.432-.242.97-.242 1.618v8.252h-1.187c-.863 0-1.492-.216-1.887-.647-.396-.432-.594-1.025-.594-1.78V0h1.133c.863 0 1.506.216 1.928.647.423.432.634.989.634 1.672v4.153c.126-.216.3-.436.526-.66.224-.225.471-.432.741-.621s.566-.346.89-.472a2.73 2.73 0 0 1 .998-.189c1.887 0 3.353.544 4.395 1.632 1.043 1.087 1.564 2.665 1.564 4.732v8.522h-1.186zm16.848-7.713c0 1.169-.144 2.243-.431 3.223-.288.98-.706 1.83-1.254 2.548a5.615 5.615 0 0 1-2.05 1.672c-.818.396-1.757.593-2.818.593-.809 0-1.532-.202-2.17-.606a4.408 4.408 0 0 1-1.497-1.551V24H32.24a2.621 2.621 0 0 1-1.753-.674 2.499 2.499 0 0 1-.566-.782 2.443 2.443 0 0 1-.216-1.052v-8.79c0-1.205.14-2.311.418-3.318.279-1.006.715-1.87 1.308-2.588.594-.72 1.349-1.277 2.265-1.672.917-.396 2.014-.594 3.29-.594.971 0 1.861.203 2.67.607.809.405 1.506.94 2.09 1.605a7.348 7.348 0 0 1 1.362 2.292c.323.863.485 1.753.485 2.67zm-3.721.944c0-1.726-.283-2.975-.85-3.748-.566-.773-1.433-1.16-2.602-1.16-1.007 0-1.775.391-2.306 1.173-.53.782-.795 1.803-.795 3.061 0 1.456.328 2.58.984 3.37.656.792 1.524 1.187 2.602 1.187.881 0 1.596-.355 2.144-1.065.549-.71.823-1.65.823-2.818zM58.149 13.7c0 .935-.17 1.762-.512 2.48A5.368 5.368 0 0 1 56.248 18a6.004 6.004 0 0 1-2.022 1.12 7.664 7.664 0 0 1-2.414.377h-1.995c-3.434 0-5.151-1.466-5.151-4.396V1.7c.216-.072.521-.157.917-.256a25.63 25.63 0 0 1 1.28-.283c.46-.09.927-.162 1.403-.216.476-.054.903-.081 1.28-.081h2.24c.88 0 1.689.112 2.426.337a5.823 5.823 0 0 1 1.915.97c.539.423.957.936 1.254 1.538.296.602.445 1.28.445 2.036 0 1.025-.261 1.865-.783 2.521-.52.656-1.24 1.12-2.157 1.389.468.126.9.333 1.295.62.395.288.741.616 1.038.984.296.369.526.769.687 1.2.162.432.243.845.243 1.24zm-4.018-7.632c0-.395-.085-.732-.256-1.01a1.936 1.936 0 0 0-.66-.661 2.948 2.948 0 0 0-.918-.351 4.962 4.962 0 0 0-1.024-.108h-1.376c-.233 0-.494.023-.782.067-.287.045-.557.086-.809.122v4.18h2.832c.827 0 1.532-.176 2.117-.526.584-.35.876-.922.876-1.713zm.297 7.74c0-1.007-.256-1.7-.769-2.077-.512-.377-1.308-.566-2.386-.566h-2.94v3.802c0 .324.153.598.459.823.305.224.692.337 1.16.337h1.51c1.006 0 1.752-.211 2.238-.634.485-.422.728-.984.728-1.685zm18.304-.108c0 .935-.17 1.762-.512 2.48A5.368 5.368 0 0 1 70.83 18a6.004 6.004 0 0 1-2.022 1.12 7.664 7.664 0 0 1-2.414.377H64.4c-3.434 0-5.151-1.466-5.151-4.396V1.7c.216-.072.521-.157.917-.256a25.63 25.63 0 0 1 1.28-.283c.46-.09.927-.162 1.403-.216.476-.054.903-.081 1.28-.081h2.24c.88 0 1.689.112 2.426.337a5.823 5.823 0 0 1 1.915.97c.539.423.957.936 1.254 1.538.296.602.445 1.28.445 2.036 0 1.025-.261 1.865-.782 2.521-.522.656-1.24 1.12-2.158 1.389.468.126.9.333 1.295.62.395.288.741.616 1.038.984.296.369.526.769.687 1.2.162.432.243.845.243 1.24zm-4.018-7.632c0-.395-.085-.732-.256-1.01a1.936 1.936 0 0 0-.66-.661 2.948 2.948 0 0 0-.918-.351 4.962 4.962 0 0 0-1.024-.108H64.48c-.233 0-.494.023-.782.067-.287.045-.557.086-.809.122v4.18h2.832c.827 0 1.532-.176 2.117-.526.584-.35.876-.922.876-1.713zm.297 7.74c0-1.007-.256-1.7-.769-2.077-.512-.377-1.308-.566-2.386-.566h-2.94v3.802c0 .324.153.598.459.823.305.224.692.337 1.16.337h1.51c1.006 0 1.752-.211 2.238-.634.485-.422.728-.984.728-1.685zm.591 9.337h-.37V20.93h.855c.273 0 .478.05.616.15.138.1.207.262.207.487 0 .2-.056.346-.169.438a.773.773 0 0 1-.42.166l.633.973h-.42l-.583-.946h-.349v.946zm.414-1.256c.07 0 .136-.003.2-.008a.43.43 0 0 0 .165-.046.304.304 0 0 0 .115-.104.347.347 0 0 0 .044-.19.253.253 0 0 0-.047-.16.309.309 0 0 0-.117-.091.489.489 0 0 0-.158-.04 1.845 1.845 0 0 0-.169-.008h-.447v.647h.414zM72 22c0 .3-.054.572-.16.818a1.917 1.917 0 0 1-1.074 1.038 2.035 2.035 0 0 1-.76.144c-.295 0-.565-.05-.81-.152a1.9 1.9 0 0 1-.632-.42 1.93 1.93 0 0 1-.414-.634c-.1-.244-.15-.509-.15-.794 0-.3.054-.572.16-.818a1.917 1.917 0 0 1 1.077-1.038c.243-.096.5-.144.768-.144a2.035 2.035 0 0 1 1.398.55c.184.175.33.386.436.632.107.246.161.519.161.818zm-.436 0c0-.242-.04-.465-.12-.668a1.567 1.567 0 0 0-.332-.525 1.5 1.5 0 0 0-.496-.34 1.545 1.545 0 0 0-.61-.12c-.222 0-.428.04-.62.12-.19.081-.356.194-.498.34-.141.147-.252.321-.332.525a1.81 1.81 0 0 0-.12.668c0 .228.036.442.109.642a1.49 1.49 0 0 0 .807.88c.192.087.41.13.653.13.218 0 .422-.04.61-.12a1.5 1.5 0 0 0 .497-.34c.141-.146.252-.32.332-.52.08-.202.12-.426.12-.672z"/>
</svg>
