<svg width="64" height="64" viewBox="0 0 64 64" xmlns="http://www.w3.org/2000/svg">
	<path d="M16 7h28a8 8 0 0 1 8 8v33a8 8 0 0 1-8 8H16a8 8 0 0 1-8-8V15a8 8 0 0 1 8-8z" fill="#F9F9F9" stroke="#D0D0D0" stroke-width="2"/>

	<line x1="18" y1="18" x2="32" y2="18" stroke="#D0D0D0" stroke-width="2"/>
	<line x1="18" y1="24" x2="32" y2="24" stroke="#D0D0D0" stroke-width="2"/>
	<line x1="18" y1="30" x2="36" y2="30" stroke="#D0D0D0" stroke-width="2"/>
	<line x1="18" y1="36" x2="40" y2="36" stroke="#D0D0D0" stroke-width="2"/>
	<line x1="18" y1="42" x2="40" y2="42" stroke="#D0D0D0" stroke-width="2"/>
	<line x1="18" y1="48" x2="40" y2="48" stroke="#D0D0D0" stroke-width="2"/>

	<line x1="57" y1="7" x2="43" y2="23" stroke="#808080" stroke-width="3" transform="rotate(-1 40)"/>
	<circle cx="57" cy="7" r="6.2" fill="#3b94d9" class="state-color"/>

	<path d="M144 144l0 48 160 0 0-48c0-44.2-35.8-80-80-80s-80 35.8-80 80zM80 192l0-48C80 64.5 144.5 0 224 0s144 64.5 144 144l0 48 16 0c35.3 0 64 28.7 64 64l0 192c0 35.3-28.7 64-64 64L64 512c-35.3 0-64-28.7-64-64L0 256c0-35.3 28.7-64 64-64l16 0z" transform="scale(0.06, 0.065) translate(480, 220)" fill="#808080" />
</svg>
