<svg width="64" height="64" viewBox="0 0 64 64" xmlns="http://www.w3.org/2000/svg">
	<path d="M16 7h28a8 8 0 0 1 8 8v33a8 8 0 0 1-8 8H16a8 8 0 0 1-8-8V15a8 8 0 0 1 8-8z" fill="#F9F9F9" stroke="#D0D0D0" stroke-width="2"/>

	<clipPath id="clip">
		<rect x="16" y="15" width="28" height="35"/>
	</clipPath>

	<g clip-path="url(#clip)">
		<g id="lines" transform="translate(0, 0)">
			<line x1="18" y1="18" x2="32" y2="18" stroke="#D0D0D0" stroke-width="2"/>
			<line x1="18" y1="24" x2="32" y2="24" stroke="#D0D0D0" stroke-width="2"/>
			<line x1="18" y1="30" x2="36" y2="30" stroke="#D0D0D0" stroke-width="2"/>
			<line x1="18" y1="36" x2="40" y2="36" stroke="#D0D0D0" stroke-width="2"/>
			<line x1="18" y1="42" x2="40" y2="42" stroke="#D0D0D0" stroke-width="2"/>
			<line x1="18" y1="48" x2="40" y2="48" stroke="#D0D0D0" stroke-width="2"/>

			<line x1="18" y1="54" x2="40" y2="54" stroke="#D0D0D0" stroke-width="2"/>
			<line x1="18" y1="60" x2="40" y2="60" stroke="#D0D0D0" stroke-width="2"/>
		</g>
		<animateTransform href="#lines" attributeName="transform" type="translate" from="0,0" to="0,-12" dur="2s" repeatCount="indefinite" />
	</g>

	<g transform="translate(12.25, -11.5) rotate(-2) scale(0.6)">
		<path d="M42,91.9c-4,5.4-10.6,6.7-15.4,6.8c-5.7,0.2-10.6-1.2-13-2.2c6.2-2.6,8.5-6.4,10.9-10.4c1.3-2.2,2.6-4.4,4.7-6.6 c1.6-1.7,3.8-2.7,6.2-2.7c2.4-0.1,4.6,0.8,6.3,2.4C45.7,82.9,44.6,88.4,42,91.9z" fill="#b22e2e" class="state-color"/>
		<path d="M84.4,7.4L45.8,78.9c-0.5-0.7-1-1.4-1.7-2c-2.3-2.2-5.3-3.4-8.5-3.3L79,4.3c0.8-1.4,2.6-1.9,4.1-1.1l0.3,0.2 C84.7,4.2,85.2,6,84.4,7.4z" fill="#808080"/>
	</g>

  <circle cx="52" cy="55" r="6.2" fill="#FFFFFF" stroke="#D0D0D0" stroke-width="2"/>
</svg>
